<svg xmlns="http://www.w3.org/2000/svg" viewBox="0 0 38 38" width="48" height="48">
  <path d="
    M 35 15
    h -6
    v -2.28
    c 3.45 -0.89 6 -3.99 6 -7.72
    h -6
    v -2
    c 0 -1.1 -0.89 -2 -2 -2
    h -16
    c -1.1 0 -2 0.9 -2 2
    v 2
    h -6
    c 0 3.72 2.56 6.83 6 7.72
    v 2.28
    h -6
    c 0 3.72 2.56 6.83 6 7.72
    v 2.28
    h -6
    c 0 3.72 2.56 6.83 6 7.72
    v 2.28
    c 0 1.1 0.9 2 2 2
    h 16
    c 1.11 0 2 -0.9 2 -2
    v -2.28
    c 3.45 -0.89 6 -3.99 6 -7.72
    h -6
    v -2.28
    c 3.45 -0.89 6 -4 6 -7.72
    z
  " stroke="yellow" stroke-width="1px" fill="black"/>
  <path d="M 35 15 m -16 18 c -2.21 0 -4 -1.79 -4 -4 s 1.79 -4 4 -4 4 1.79 4 4 -1.79 4 -4 4 z" fill="#0f0"/>
  <path d="M 35 15 m -16 18 m 0 -10 c -2.21 0 -4 -1.79 -4 -4 s 1.79 -4 4 -4 4 1.79 4 4 -1.79 4 -4 4 z" fill="yellow"/>
  <path d="M 35 15 m -16 18 m 0 -10 m 0 -10 c -2.21 0 -4 -1.79 -4 -4 s 1.79 -4 4 -4 4 1.79 4 4 -1.79 4 -4 4 z" fill="red"/>
</svg>
